<?xml version="1.0" encoding="utf-8"?>
<!-- Generator: Adobe Illustrator 17.0.2, SVG Export Plug-In . SVG Version: 6.00 Build 0)  -->
<!DOCTYPE svg PUBLIC "-//W3C//DTD SVG 1.1//EN" "http://www.w3.org/Graphics/SVG/1.1/DTD/svg11.dtd">
<svg version="1.1" id="Layer_1" xmlns="http://www.w3.org/2000/svg" xmlns:xlink="http://www.w3.org/1999/xlink" x="0px" y="0px"
	 width="56.693px" height="56.693px" viewBox="0 0 56.693 56.693" enable-background="new 0 0 56.693 56.693" xml:space="preserve">
<g>
	<path d="M29.66,29.457c-0.109-0.542-0.638-0.893-1.178-0.783c-0.542,0.109-0.893,0.637-0.783,1.178
		c1.572,7.794-0.541,15.695-5.797,21.677c-0.365,0.415-0.324,1.047,0.091,1.411c0.19,0.167,0.426,0.249,0.66,0.249
		c0.277,0,0.554-0.115,0.751-0.34C29.076,46.393,31.356,37.867,29.66,29.457z"/>
	<path d="M35.382,28.302c-0.361-1.792-1.398-3.336-2.922-4.348c-1.522-1.012-3.349-1.369-5.139-1.009
		c-1.792,0.361-3.337,1.398-4.349,2.922c-1.012,1.522-1.369,3.348-1.008,5.14c0.011,0.052,0.025,0.103,0.044,0.151
		c0.002,0.009,0.003,0.015,0.003,0.018c0.105,0.533,0.607,0.844,1.145,0.748c0.535-0.093,0.892-0.64,0.812-1.177
		c-0.003-0.017-0.021-0.121-0.023-0.138c-0.012-0.059-0.028-0.115-0.05-0.169c-0.201-1.213,0.061-2.438,0.744-3.467
		c0.716-1.078,1.809-1.812,3.077-2.067c1.269-0.257,2.561-0.002,3.638,0.714c1.048,0.695,1.771,1.747,2.045,2.971
		c0.003,0.035,0.009,0.071,0.016,0.107c1.673,8.296-0.04,16.714-4.821,23.702c-0.312,0.455-0.195,1.078,0.261,1.39
		c0.173,0.118,0.369,0.175,0.563,0.175c0.319,0,0.633-0.152,0.826-0.436c5.066-7.404,6.896-16.316,5.155-25.107
		C35.396,28.382,35.39,28.342,35.382,28.302z"/>
	<path d="M23.365,33.646c-0.003,0-0.007,0-0.011,0c-0.552,0.006-0.995,0.458-0.989,1.011c0.058,5.422-2.189,10.666-6.165,14.387
		c-0.403,0.378-0.424,1.011-0.047,1.414c0.197,0.21,0.464,0.316,0.73,0.316c0.245,0,0.49-0.09,0.684-0.27
		c4.383-4.104,6.861-9.888,6.798-15.869C24.359,34.086,23.913,33.646,23.365,33.646z"/>
	<path d="M40.683,38.684c-0.561-0.054-1.049,0.318-1.12,0.864c-0.511,3.978-1.662,7.825-3.422,11.438
		c-0.241,0.496-0.035,1.095,0.462,1.337c0.141,0.068,0.29,0.101,0.437,0.101c0.371,0,0.727-0.207,0.9-0.562
		c1.854-3.809,3.067-7.865,3.607-12.058C41.618,39.256,41.231,38.755,40.683,38.684z"/>
	<path d="M26.17,17.235c-3.318,0.669-6.177,2.59-8.05,5.408c-1.872,2.819-2.535,6.198-1.866,9.516
		c0.011,0.052,0.025,0.103,0.044,0.151c0.93,4.898-0.883,9.89-4.752,13.06c-0.427,0.35-0.49,0.979-0.14,1.407
		c0.197,0.241,0.484,0.366,0.774,0.366c0.223,0,0.447-0.074,0.633-0.227c4.483-3.674,6.559-9.48,5.415-15.155
		c-0.011-0.052-0.025-0.102-0.044-0.15c-1.066-5.713,2.664-11.263,8.38-12.415c2.792-0.567,5.639-0.006,8.013,1.572
		c2.373,1.577,3.99,3.984,4.553,6.778c0.557,2.763,0.796,5.6,0.71,8.432c-0.017,0.552,0.418,1.013,0.97,1.03
		c0.557,0.013,1.014-0.416,1.03-0.97c0.09-2.983-0.162-5.974-0.748-8.888C39.711,20.302,33.011,15.857,26.17,17.235z"/>
	<path d="M46.789,25.927c-1.273-6.187-5.56-11.237-11.479-13.521c-0.517-0.199-1.095,0.057-1.293,0.572
		c-0.199,0.516,0.058,1.095,0.572,1.293c5.303,2.046,9.136,6.577,10.254,12.122c0.005,0.024,0.011,0.048,0.017,0.07
		c1.299,6.489,1.098,13.002-0.597,19.36c-0.143,0.534,0.175,1.082,0.708,1.224c0.087,0.023,0.173,0.034,0.259,0.034
		c0.441,0,0.846-0.295,0.965-0.742c1.781-6.682,1.987-13.524,0.612-20.341C46.801,25.975,46.795,25.952,46.789,25.927z"/>
	<path d="M11.405,26.742c0.075,0.018,0.149,0.025,0.224,0.025c0.456,0,0.868-0.313,0.974-0.777
		c1.445-6.318,6.474-11.227,12.811-12.504c1.897-0.383,3.853-0.419,5.818-0.109c0.548,0.081,1.058-0.287,1.144-0.833
		c0.086-0.545-0.287-1.057-0.833-1.144c-2.199-0.346-4.396-0.304-6.523,0.125c-7.106,1.433-12.745,6.936-14.365,14.02
		C10.53,26.082,10.866,26.619,11.405,26.742z"/>
	<path d="M12.513,32.913c-0.009-0.042-0.02-0.083-0.034-0.123c-0.209-1.085-0.309-2.213-0.295-3.354
		c0.007-0.552-0.436-1.005-0.988-1.012c-0.004,0-0.008,0-0.012,0c-0.547,0-0.993,0.439-1,0.988
		c-0.016,1.325,0.105,2.638,0.359,3.898c0.009,0.041,0.02,0.081,0.032,0.12c0.507,2.734-0.491,5.538-2.621,7.344
		c-0.422,0.356-0.474,0.988-0.116,1.409c0.197,0.233,0.479,0.354,0.764,0.354c0.228,0,0.458-0.078,0.646-0.237
		C11.965,39.997,13.216,36.4,12.513,32.913z"/>
	<path d="M52.527,24.846c-0.011-0.054-0.026-0.106-0.045-0.156C49.759,11.634,36.954,3.177,23.867,5.814
		c-3.421,0.69-6.588,2.073-9.412,4.112c-0.448,0.323-0.549,0.948-0.226,1.396c0.323,0.449,0.948,0.551,1.396,0.226
		c2.592-1.87,5.498-3.14,8.637-3.772c12.07-2.43,23.859,5.405,26.292,17.468c0.011,0.052,0.025,0.102,0.043,0.149
		c0.303,1.558,0.44,3.143,0.41,4.713c-0.011,0.553,0.429,1.009,0.98,1.02c0.007,0,0.014,0,0.02,0c0.544,0,0.989-0.436,1-0.98
		C53.041,28.377,52.878,26.595,52.527,24.846z"/>
	<path d="M6.806,34.065c-0.011-0.051-0.024-0.101-0.043-0.148c-1.423-7.315,0.88-14.815,6.177-20.09
		c0.391-0.39,0.393-1.023,0.003-1.415c-0.39-0.39-1.023-0.395-1.415-0.003c-5.81,5.786-8.312,14.031-6.695,22.054
		c0.011,0.053,0.025,0.104,0.045,0.154c0.062,0.297,0.129,0.592,0.202,0.883c0.113,0.455,0.521,0.758,0.969,0.758
		c0.08,0,0.162-0.01,0.243-0.03c0.536-0.134,0.862-0.677,0.728-1.212C6.941,34.702,6.871,34.384,6.806,34.065z"/>
</g>
</svg>
