<?xml version="1.0" encoding="utf-8"?>
<!-- Generator: Adobe Illustrator 16.0.0, SVG Export Plug-In . SVG Version: 6.00 Build 0)  -->
<!DOCTYPE svg PUBLIC "-//W3C//DTD SVG 1.1//EN" "http://www.w3.org/Graphics/SVG/1.1/DTD/svg11.dtd">
<svg version="1.1" id="Layer_1" xmlns="http://www.w3.org/2000/svg" xmlns:xlink="http://www.w3.org/1999/xlink" x="0px" y="0px"
	 width="120px" height="35px" viewBox="0 0 120 35" enable-background="new 0 0 120 35" xml:space="preserve">
<g>
	<path fill="#ED6845" d="M8.323,15.664h7.365V26.6c0,5.518-2.679,8.67-7.844,8.67C2.679,35.27,0,32.117,0,26.6V8.669
		C0,3.152,2.679,0,7.845,0c5.165,0,7.844,3.152,7.844,8.669v3.351h-4.974V8.325c0-2.464-1.053-3.399-2.728-3.399
		c-1.673,0-2.726,0.936-2.726,3.399v18.619c0,2.463,1.053,3.35,2.726,3.35c1.675,0,2.728-0.887,2.728-3.35V20.59H8.323V15.664z"/>
	<path fill="#ED6845" d="M29.137,34.875c-0.288-0.887-0.479-1.429-0.479-4.236v-5.418c0-3.202-1.052-4.385-3.443-4.385h-1.817
		v14.039h-5.262V0.394h7.94c5.453,0,7.797,2.611,7.797,7.932v2.709c0,3.546-1.101,5.861-3.444,6.994
		c2.631,1.133,3.492,3.744,3.492,7.34v5.32c0,1.675,0.048,2.905,0.573,4.187H29.137z M23.396,5.32v10.59h2.057
		c1.961,0,3.157-0.887,3.157-3.645V8.866c0-2.463-0.813-3.546-2.68-3.546H23.396z"/>
	<path fill="#ED6845" d="M54.451,34.875h-5.31l-0.908-6.256h-6.458l-0.909,6.256h-4.831l5.358-34.481h7.7L54.451,34.875z
		 M42.445,23.939h5.07L44.98,6.502L42.445,23.939z"/>
	<path fill="#ED6845" d="M56.408,0.394h8.323c5.261,0,7.844,3.005,7.844,8.522v17.438c0,5.518-2.583,8.521-7.844,8.521h-8.323V0.394
		z M61.67,5.32v24.629h2.966c1.674,0,2.679-0.887,2.679-3.35V8.669c0-2.462-1.005-3.349-2.679-3.349H61.67z"/>
	<path fill="#ED6845" d="M92.198,34.875h-5.31l-0.908-6.256h-6.458l-0.909,6.256h-4.831l5.358-34.481h7.7L92.198,34.875z
		 M80.192,23.939h5.07L82.728,6.502L80.192,23.939z"/>
</g>
<g>
	<path fill="#ED6845" d="M95.062,14.994V17.6H92.53v-2.605H95.062z"/>
	<path fill="#ED6845" d="M102.53,12.609l1.79-12.216h3.651V17.6h-2.481V5.261L103.676,17.6h-2.481L99.237,5.434V17.6h-2.292V0.394
		h3.651L102.53,12.609z"/>
	<path fill="#ED6845" d="M112.194,7.645h3.604v2.458h-3.604v5.039h4.535V17.6h-7.16V0.394h7.16v2.458h-4.535V7.645z"/>
</g>
</svg>
