<?xml version="1.0" encoding="UTF-8" standalone="no"?>
<!-- Generator: Adobe Illustrator 15.0.0, SVG Export Plug-In . SVG Version: 6.00 Build 0)  -->

<svg
   xmlns:dc="http://purl.org/dc/elements/1.1/"
   xmlns:cc="http://creativecommons.org/ns#"
   xmlns:rdf="http://www.w3.org/1999/02/22-rdf-syntax-ns#"
   xmlns:svg="http://www.w3.org/2000/svg"
   xmlns="http://www.w3.org/2000/svg"
   xmlns:sodipodi="http://sodipodi.sourceforge.net/DTD/sodipodi-0.dtd"
   xmlns:inkscape="http://www.inkscape.org/namespaces/inkscape"
   version="1.1"
   id="Layer_1"
   x="0px"
   y="0px"
   width="20.464474"
   height="25.232422"
   viewBox="0 0 20.464474 25.232422"
   enable-background="new 0 0 26 26"
   xml:space="preserve"
   inkscape:version="0.91 r13725"
   sodipodi:docname="handgesture.svg"><metadata
     id="metadata21"><rdf:RDF><cc:Work
         rdf:about=""><dc:format>image/svg+xml</dc:format><dc:type
           rdf:resource="http://purl.org/dc/dcmitype/StillImage" /><dc:title></dc:title></cc:Work></rdf:RDF></metadata><defs
     id="defs19" /><sodipodi:namedview
     pagecolor="#ffffff"
     bordercolor="#666666"
     borderopacity="1"
     objecttolerance="10"
     gridtolerance="10"
     guidetolerance="10"
     inkscape:pageopacity="0"
     inkscape:pageshadow="2"
     inkscape:window-width="1366"
     inkscape:window-height="745"
     id="namedview17"
     showgrid="false"
     inkscape:zoom="9.0769231"
     inkscape:cx="44.249098"
     inkscape:cy="-4.4592684"
     inkscape:window-x="0"
     inkscape:window-y="23"
     inkscape:window-maximized="1"
     inkscape:current-layer="Layer_1"
     fit-margin-top="0"
     fit-margin-left="0"
     fit-margin-right="0"
     fit-margin-bottom="0" /><path
     style="fill:#000000"
     d="M 10.964474,0 A 1.5,1.5 0 0 0 9.4644735,1.5 l 0,9.5 c 0,0.276 -0.224,0.5 -0.4999999,0.5 -0.276,0 -0.5,-0.224 -0.5,-0.5 l 0,-7.5 a 1.5,1.5 0 0 0 -1.5,-1.5 1.5,1.5 0 0 0 -1.5,1.5 l 0,12.5 -2.0253906,-2.771484 c -0.6,-0.925 -1.7709063,-1.23508 -2.62890627,-0.705078 -0.85499992,0.541999 -1.0666093,1.724484 -0.4746093,2.646484 0,0 3.26620307,4.942594 4.65820307,7.058594 0.475841,0.723333 1.0637243,1.385226 1.7851562,1.953125 l 1.3085938,1.007812 9.1054695,0.04297 1.166015,-1.050781 C 20.220051,22.461746 20.464474,19.9998 20.464474,19 l 0,-13.5 a 1.5,1.5 0 0 0 -1.5,-1.5 1.5,1.5 0 0 0 -1.5,1.5 l 0,6.5 c 0,0.276 -0.224,0.5 -0.5,0.5 -0.276,0 -0.5,-0.224 -0.5,-0.5 l 0,-9.5 a 1.5,1.5 0 0 0 -1.5,-1.5 1.5,1.5 0 0 0 -1.5,1.5 l 0,8.5 c 0,0.276 -0.224,0.5 -0.5,0.5 -0.276,0 -0.5,-0.224 -0.5,-0.5 l 0,-9.5 a 1.5,1.5 0 0 0 -1.5,-1.5 z"
     id="circle7"
     inkscape:connector-curvature="0" /></svg>