<!-- Created with Inkscape (http://www.inkscape.org/) -->
<svg xmlns:rdf="http://www.w3.org/1999/02/22-rdf-syntax-ns#" xmlns="http://www.w3.org/2000/svg" version="1.1" xmlns:cc="http://creativecommons.org/ns#" xmlns:dc="http://purl.org/dc/elements/1.1/" viewBox="0 0 56.312 35.469">
<g>
<path  d="m1.876251,0.002197c-1.022003,0 -1.875,0.821716 -1.875,1.843811l0,31.75c0,1.021973 0.852997,1.875 1.875,1.875l52.593994,0c1.02002,0 1.843811,-0.85199 1.843811,-1.875l0,-31.75c0,-1.022034 -0.824768,-1.843811 -1.843811,-1.843811l-52.589996,0l-0.003998,0zm13.656006,9c2.346405,0 4.25,1.903625 4.25,4.25c0,2.353394 -1.903595,4.25 -4.25,4.25s-4.25,-1.896606 -4.25,-4.25c0,-2.346375 1.903595,-4.25 4.25,-4.25zm19.687988,0.125l6.093811,0l0,2.843811c-0.130157,-0.017029 -0.240479,-0.031189 -0.375,-0.031189l-0.5,0c-1.559692,0 -2.86322,1.155701 -3.125,2.656189l-5.4375,0l0,-2.0625c0,-1.862732 1.499695,-3.406189 3.343781,-3.406189l-0.000092,-0.000122zm7.5625,0l3.031219,0c1.844696,0 3.343781,1.543579 3.343781,3.406189l0,2.0625l-5.093781,0c-0.146881,-0.836609 -0.624634,-1.553101 -1.281219,-2.031189l0,-3.4375zm-2.343781,4.25l0.5,0c0.945984,0 1.719482,0.826416 1.718781,1.781189l0,5.406189c0,0.954834 -0.772736,1.781189 -1.718781,1.781189l-0.5,0c-0.946014,0 -1.718811,-0.825623 -1.718811,-1.781189l0,-5.406189c0,-0.954834 0.772034,-1.781189 1.718811,-1.781189zm-8.5625,2.656189l5.375,0l0,4.406189l-5.375,0l0,-4.406189zm12.218994,0l5.0625,0l0,4.406189l-5.0625,0l0,-4.406189zm-28.562012,4.156189c2.8284,0 8.488708,1.560791 8.531189,4.375c-1.835999,2.750427 -4.979797,4.5625 -8.531189,4.5625s-6.664001,-1.812073 -8.5,-4.5625c0.0354,-2.814209 5.6716,-4.375 8.5,-4.375zm16.343994,1.75l5.656219,0c0.173798,0.38269 0.448944,0.716492 0.75,1l0,3.656189l-3.0625,0c-1.844818,0 -3.343811,-1.543579 -3.343811,-3.406189l0,-1.25l0.000092,0zm11.938019,0l5.343781,0l0,1.25c0,1.863403 -1.499695,3.406189 -3.343781,3.406189l-6.093811,0l0,-2.906189c0.2276,0.052124 0.475891,0.093689 0.71875,0.093689l0.5,0c1.27829,0 2.373291,-0.739746 2.875,-1.84375l0.000061,0.000061z" />
</g>
</svg>
