<!-- Created with Inkscape (http://www.inkscape.org/) -->
<svg xmlns:rdf="http://www.w3.org/1999/02/22-rdf-syntax-ns#" xmlns="http://www.w3.org/2000/svg" version="1.1" xmlns:cc="http://creativecommons.org/ns#" xmlns:dc="http://purl.org/dc/elements/1.1/" viewBox="0 0 56.312 35.469">
<metadata>
<rdf:RDF>
<cc:Work rdf:about="">
<dc:format>image/svg+xml</dc:format>
<dc:type rdf:resource="http://purl.org/dc/dcmitype/StillImage"/>
<dc:title/>
</cc:Work>
</rdf:RDF>
</metadata>
<g transform="translate(-334.7009,-274.62781)">
<path fill="#231f20" d="m336.58,274.63c-1.022,0-1.875,0.853-1.875,1.875v31.75c0,1.022,0.853,1.8438,1.875,1.8438h52.594c1.02,0,1.8438-0.82075,1.8438-1.8438v-31.75c0-1.022-0.82475-1.875-1.8438-1.875h-52.594zm39.844,5.75,3.7812,0,0,1.7812c-0.081-0.0105-0.13508-0.0312-0.21875-0.0312h-0.3125c-0.97016,0-1.7747,0.72287-1.9375,1.6562h-3.4062v-1.2812c0-1.1586,0.94673-2.125,2.0938-2.125zm4.6875,0,1.9062,0c1.1475,0,2.0625,0.96638,2.0625,2.125v1.2812h-3.1562c-0.0914-0.52038-0.40407-0.95258-0.8125-1.25v-2.1562zm-1.4375,2.6562,0.3125,0c0.58843,0,1.063,0.49982,1.0625,1.0938v3.375c0,0.59393-0.47407,1.0938-1.0625,1.0938h-0.3125c-0.58842,0-1.0625-0.49937-1.0625-1.0938v-3.375c0-0.59393,0.47362-1.0938,1.0625-1.0938zm-30.688,0.59375c2.3464,0,4.25,1.9036,4.25,4.25,0,2.3534-1.9036,4.2812-4.25,4.2812s-4.25-1.9278-4.25-4.2812c0-2.3464,1.9036-4.25,4.25-4.25zm25.344,1.0625,3.3438,0,0,2.7188-3.3438,0,0-2.7188zm7.625,0,3.125,0,0,2.7188-3.125,0,0-2.7188zm-7.625,3.6562,3.5312,0c0.10811,0.23803,0.2815,0.44865,0.46875,0.625v2.2812h-1.9062c-1.1475,0-2.0938-0.96637-2.0938-2.125v-0.78125zm7.4375,0,3.3125,0,0,0.78125c0,1.1591-0.91548,2.125-2.0625,2.125h-3.7812v-1.8125c0.14157,0.0324,0.28643,0.0625,0.4375,0.0625h0.3125c0.79513,0,1.4692-0.46957,1.7812-1.1562zm-19.562,2.1875,7.25,0,0,2.0625-7.25,0,0-2.0625zm-13.219,4.3125c2.8284,0,8.4575,1.5295,8.5,4.3438-1.836,2.7504-4.9486,4.5938-8.5,4.5938s-6.6953-1.8433-8.5312-4.5938c0.0354-2.8142,5.7029-4.3438,8.5312-4.3438zm13.219,0.25,21.719,0,0,2.0938-21.719,0,0-2.0938zm-0.0625,4.3438,16.781,0,0,2.0625-16.781,0,0-2.0625z"/>
</g>
</svg>
