<!-- Created with Inkscape (http://www.inkscape.org/) -->
<svg xmlns:rdf="http://www.w3.org/1999/02/22-rdf-syntax-ns#" xmlns="http://www.w3.org/2000/svg" version="1.1" xmlns:cc="http://creativecommons.org/ns#" xmlns:dc="http://purl.org/dc/elements/1.1/" viewBox="0 0 56.281 35.469">
<metadata>
<rdf:RDF>
<cc:Work rdf:about="">
<dc:format>image/svg+xml</dc:format>
<dc:type rdf:resource="http://purl.org/dc/dcmitype/StillImage"/>
<dc:title/>
</cc:Work>
</rdf:RDF>
</metadata>
<g transform="translate(-709.00223,-614.62781)">
<path fill="#231f20" d="m710.85,614.63c-1.022,0-1.8438,0.82175-1.8438,1.8438v31.75c0,1.022,0.82175,1.875,1.8438,1.875h52.594c1.02,0,1.8438-0.852,1.8438-1.875v-31.75c0-1.022-0.82475-1.8438-1.8438-1.8438h-52.594zm13.688,9c2.3464,0,4.25,1.9036,4.25,4.25,0,2.3534-1.9036,4.25-4.25,4.25s-4.25-1.8966-4.25-4.25c0-2.3464,1.9036-4.25,4.25-4.25zm14.625,4.5312,19.906,0,0,2.0625-19.906,0,0-2.0625zm-0.0937,4.3438,15.438,0,0,2.0625-15.438,0,0-2.0625zm-14.531,2.3438c2.8284,0,8.4575,1.5295,8.5,4.3438-1.836,2.7504-4.9486,4.5938-8.5,4.5938s-6.6953-1.8433-8.5312-4.5938c0.0354-2.8142,5.7029-4.3438,8.5312-4.3438zm14.5,1.7188,18.75,0,0,2.0625-18.75,0,0-2.0625z"/>
</g>
</svg>
