<?xml version="1.0" encoding="utf-8"?>
<!-- Generator: Adobe Illustrator 16.0.0, SVG Export Plug-In . SVG Version: 6.00 Build 0)  -->
<!DOCTYPE svg PUBLIC "-//W3C//DTD SVG 1.1//EN" "http://www.w3.org/Graphics/SVG/1.1/DTD/svg11.dtd">
<svg version="1.1" id="Layer_1" xmlns="http://www.w3.org/2000/svg" xmlns:xlink="http://www.w3.org/1999/xlink" x="0px" y="0px"
	 width="16px" height="13.647px" viewBox="0 0 16 13.647" enable-background="new 0 0 16 13.647" xml:space="preserve">
<g>
	<path fill="#231F20" d="M13.105,0.095L8,2.647v7l5.105,2.553C13.597,12.446,14,12.197,14,11.647v-11
		C14,0.098,13.597-0.151,13.105,0.095z"/>
	<path fill="#231F20" d="M0,5.647v1c0,1.1,0.9,2,2,2l1.443,3.607c0.307,0.766,1.232,1.393,2.057,1.393s1.25-0.627,0.943-1.393
		L5,8.647h2v-5H2C0.9,3.647,0,4.547,0,5.647z"/>
	<path fill="#231F20" d="M15,4.647v3c0.551,0,1-0.45,1-1v-1C16,5.098,15.55,4.647,15,4.647z"/>
</g>
</svg>
